
<svg version="1.1" id="Ebene_1" xmlns="http://www.w3.org/2000/svg" xmlns:xlink="http://www.w3.org/1999/xlink" x="0px" y="0px"
	 viewBox="0 0 174.4 132" style="enable-background:new 0 0 174.4 132;" xml:space="preserve">
<path d="M4,114.9c3.7,0.9,7.3,1.9,11,2.6c29.4,4.8,57-1.8,81.4-23.9c7.3-6.7,13.2-16.2,19.3-24.9c8.7-12.7,17.5-20.6,30.1-25.7
	c-8.7-1.9-21.8,1.4-31.4,10C106,60.5,98.2,69.1,90.6,78c-9.3,10.7-18.7,20.9-31,24.6c-8.5,2.6-17.4,3.7-26.1,5.3
	c-1.4,0.3-2.9-0.6-4.3-1c0-0.5,0-1.1,0.1-1.6c2.7-0.6,5.5-1.2,8.2-1.8c11.4-2.3,21.2-9.1,29.3-19c8.4-10.3,16.1-21.7,23.7-33
	c6.7-10,13.8-19.5,22.7-26.6c14.9-12,32.6-12.2,44.7,0.4c7.8,8.1,10.8,19.7,13,31.7c0.1,0.7-0.2,1.6-0.5,3.5c-1.2-1.5-2-2.4-2.5-3.4
	c-4.9-9.6-13.4-12.8-22-9.4c-10.1,3.9-14.7,14.3-19.4,24.7c-5.7,12.5-12.1,24.3-21.1,33.3c-11.8,11.8-25.4,18-40.1,20.3
	c-17.6,2.8-35,0.9-52.2-4.3c-3.3-1-6.4-3.1-9.6-4.7C3.6,116.3,3.8,115.6,4,114.9z M165,45.8c-1.3-3.3-2.1-5.6-3-7.7
	c-5.5-12.2-16.4-18.6-26-18c-9.8,0.6-18.4,5.9-26.3,13C100.6,41.4,94,53,87,63.9c-7.4,11.4-15.1,22.4-24.9,30.6
	c-1.7,1.5-3.5,2.8-5.3,4.2c9-2,16.5-7.8,23.3-15.1c8.4-9.1,16.1-19.2,24.8-27.8C122.9,38,142.5,31.7,165,45.8z M36.5,122.9
	c55.7,3.2,74-20.8,92.3-65.1c-6.5,8.3-13.1,16.6-19,25.6c-9.8,14.6-22.3,24.1-36.3,30.4C61.8,119,49.7,121.8,36.5,122.9z"/>
</svg>
