<?xml version="1.0" encoding="utf-8"?>
<!-- Generator: Adobe Illustrator 27.9.0, SVG Export Plug-In . SVG Version: 6.00 Build 0)  -->
<svg version="1.1" id="Ebene_1" xmlns="http://www.w3.org/2000/svg" xmlns:xlink="http://www.w3.org/1999/xlink" x="0px" y="0px"
	 viewBox="0 0 125.8 206.6" style="enable-background:new 0 0 125.8 206.6;" xml:space="preserve">
<style type="text/css">
	.st0{fill:#FFFFFF;}
</style>
<g>
	<path d="M29.6,46.1c-2.4-0.9-4.9-1.7-7.3-2.9c-7.4-3.7-11.9-9.9-14.2-17.7C7,21.6,6.8,17.6,7.5,13.6c0.1-0.4,0.2-0.9,0.4-1.3
		C8,12.7,8.1,13,8.2,13.4c0.8,3,2.7,5.4,5.3,7.1c1.4,0.9,2.9,1.7,4.4,2.6c7.7,4.3,13.4,10.6,18,18c1.8,2.8,3.4,5.7,5.5,8.2
		c2.9,3.4,5.9,6.7,8.5,10.4c0.1,0.1,0.2,0.2,0.5,0.3c-0.2-0.5-0.4-1-0.7-1.4c-1.5-1.9-3-3.8-4.5-5.8c-1.8-2.4-3.6-4.8-5.3-7.2
		c-0.6-0.8-0.9-1.8-0.9-2.8c0.1-2.2,0-4.3,0-6.5c0-0.3,0-0.6,0.1-1.1c0.8,0.6,1.5,1.1,2.1,1.7c2.1,2,3.3,4.6,4.7,7.1
		c1.2,2.1,2,4.3,1.9,6.8c-0.1,2.1,0.5,4.2,1.5,6.1c0.7,1.4,1.7,2.5,3.1,3.3c0-0.1,0.1-0.1,0.1-0.1c-2.5-2.9-3.2-6.5-3.2-10.1
		c0-7.5,1.9-14.6,5.4-21.2c0.7-1.4,1.8-2.6,2.7-3.9c0.1,0,0.2,0.1,0.3,0.1c0,0.4,0.1,0.7,0,1.1c-0.5,2.5-0.1,4.9,1,7.2
		c1.3,2.9,2.6,5.8,3.6,8.8c1.5,4.7,1.5,9.5-0.6,14c-0.6,1.4-1.5,2.6-2.3,3.8c0.1,0,0.3-0.1,0.4-0.3c2.9-2.3,4.5-5.3,4.9-8.9
		c0.6-5.2-0.6-9.9-2.8-14.5c-0.5-1-0.9-2.1-1.4-3c-1.5-2.8-1.7-5.7-1.1-8.8c0.1-0.8,0.3-1.6,0.4-2.5c-3,1.7-5.5,3.9-7.1,7
		c-1.9,3.7-3.2,7.7-4.1,11.7c-0.1,0.3-0.1,0.6-0.3,0.9c-0.1-0.2-0.1-0.4-0.2-0.6C47,35.2,48,29.9,50.9,24.8c1-1.7,1.7-3.5,2.5-5.3
		c0.5-1.2,1-2.4,1.6-3.6c2.3-4.4,2.9-8.9,1.3-13.7c-0.1-0.2-0.1-0.3-0.1-0.5c0.1,0,0.1-0.1,0.2-0.1c0.8,0.7,1.6,1.4,2.3,2.2
		c1.9,2.1,3.2,4.6,4,7.3c2.2,7.2,4.3,14.4,5.6,21.8c0.9,5.3,0.3,10.4-1.8,15.3c-0.7,1.8-1.2,3.6-1.8,5.4c-0.1,0.2-0.1,0.3-0.1,0.6
		c1.3-1,1.9-2.3,2.3-3.7c1.3-4.4,2.6-8.8,3.9-13.2c1.9-6.4,4.9-12.1,9-17.3c1.8-2.3,3.2-4.8,3.3-7.8c0-0.8,0-1.6,0.2-2.5
		c0.2,0.3,0.5,0.6,0.7,0.9c1.5,2.2,2.2,4.6,2.3,7.2c0.5,9.7-0.5,19.2-5.3,27.9c-1,1.8-1.5,3.4-1.5,4.7c0.1,0.1,0.1,0.1,0.2,0.2
		c0.4-0.4,0.7-0.9,1.1-1.3c1.2-1.3,2.4-2.6,3.6-4c0.4-0.4,0.6-1,0.7-1.6c1.6-10.3,7-18.1,15.6-23.6c3.7-2.4,6.7-5.4,8.4-9.5
		c0-0.1,0.1-0.1,0.3-0.4c0.2,1.1,0.4,1.9,0.5,2.8c0.2,2.1,0,4.3-0.7,6.3c-1,3.4-2.1,6.7-3.3,10c-1.2,3.5-3.3,6.5-6,9.1
		c-2.7,2.7-5.6,5.2-8.9,7.1c-1.5,0.8-3.1,1.3-4.8,1.6c-0.4,0.1-0.8,0.2-1.1,0.5c-1.7,1.6-3.5,3.2-5.1,4.8c-0.6,0.6-1,1.3-1.5,1.9
		c0.1,0.1,0.1,0.2,0.2,0.2c0.5-0.2,0.9-0.4,1.4-0.7c0.8-0.5,1.6-1,2.2-1.7c2.8-2.7,6.5-2.4,9.3,0.1c1,0.9,1.7,2,2.6,2.9
		c0.9,0.9,1.8,1.8,2.9,2.6c1.1,0.9,2,1.8,2.8,3c1.7,2.7,3.6,5.3,5.4,8c0,0.1,0.1,0.1,0.2,0.5c-1.9-0.7-3.6-1.3-5.2-2
		c-1.5-0.6-2.5-1.6-3.4-2.9c-2.1-2.9-4.7-5-8.4-5.6c-1.2-0.2-2.3-0.6-3.6-1c3.7,2.6,4.8,6.6,6,10.5c-0.1,0-0.1,0.1-0.2,0.1
		c-0.2-0.3-0.4-0.5-0.5-0.8c-0.4-0.8-0.8-1.6-1.3-2.4c-0.9-1.7-2.4-2.7-4.2-3.1c-0.6-0.1-1.2-0.3-1.8-0.3c-1.2-0.1-2.2-0.5-3.2-1.2
		c-0.5-0.3-1.1-0.5-1.6-0.6c-1-0.2-1.5,0.2-1.6,1.3c-0.4,3-0.4,6,0.4,9c0,0.1,0.1,0.3,0.1,0.4c0.6,3.2,2.3,5.4,5.5,6.4
		c3.1,1,6.1,2,9.1,3.2c9.6,3.8,17.7,9.7,23.7,18.3c5.5,7.8,8.2,16.5,8.6,25.9c0.5,12.1-2.5,23.5-8.3,34c-6.4,11.5-16.4,19-28.8,23.2
		c-3.2,1.1-6.5,1.7-9.8,2.5c-0.7,0.2-1,0.5-1.2,1.1c-0.8,2.6-0.6,5.1,0.5,7.5c1,2.1,2.3,4.1,3.5,6.1c0.2,0.3,0.4,0.6,0.6,0.9
		c-1.4,0.1-4.5-1.5-6-3.2c-1.6-1.7-2.4-3.9-3-6.1c-0.1,0-0.2,0-0.3,0c0,0.8,0,1.6,0,2.4c-0.1,2-0.2,3.9-0.5,5.9
		c-0.2,1.2-0.6,2.3-1.7,3.2c-0.7-2.7-1.4-5.4-2.1-8.1c-0.6,3.3-1.8,6.4-1.1,9.9c-1.6-0.5-2.7-1.6-3.1-3.1c-0.4-1.5-0.6-3.1-1-4.7
		c-0.2-0.9-0.4-1.7-0.8-2.5c-0.6,2.8-0.7,5.7-3.5,7.3c0-2.1,0-4.2,0-6.5c-2,2.7-4.7,4.1-7.9,4.7c0.4-0.5,0.8-1,1.2-1.6
		c1.2-1.7,2.4-3.5,3.5-5.3c0.9-1.5,1.4-3.2,0.9-5.1c-0.2-1-0.7-1.9-1.6-2.3c-1.3-0.6-2.7-1.4-4.1-1.6c-7.8-1-15.2-3.2-22-7.3
		c-10.1-6.2-17.1-14.9-21.1-26.1c-3-8.4-4.4-17-3.8-26c0.8-12,4.6-22.8,12.6-31.9c5.3-6.1,11.8-10.4,19.5-13
		c2.4-0.8,4.6-1.7,6.7-3.2c4.1-2.9,6.1-8.1,5-12.6c-0.5-1.8-1.4-3.2-3.1-4.1c-2.1-1-3.7-2.5-5.1-4.4c-1.1-1.4-2.1-2.8-3.2-4.1
		c-1.2-1.6-2.6-2.9-4.4-3.9C29.9,46.4,29.8,46.2,29.6,46.1c0.3,0,0.7,0,1,0.2c1.1,0.5,2.2,1,3.2,1.6c5.8,3.3,10.9,7.5,15.6,12.1
		c0.4,0.4,0.8,0.7,1.1,1.1c0-0.3,0-0.4-0.1-0.5c-1-1.2-2-2.5-3-3.7c-2.8-3.5-6-6.6-10.1-8.7c-2.3-1.2-4.7-1.9-7.2-2.4
		C29.8,45.7,29.5,45.6,29.6,46.1z M117.3,114.6c-2.2-8.9-6.7-16-14-21.4c-6.9-5-15.9-6.9-20.3-6.4c1.3,0.4,2.6,0.8,3.8,1.3
		c7.7,3.1,13.6,8.4,18.2,15.2c2.2,3.3,4,6.8,5.4,10.5c0.1,0.3,0.4,0.7,0.7,0.7C113,114.6,115,114.6,117.3,114.6z M107.1,162.4
		c0.4-0.5,0.7-0.8,1-1.1c2.9-3.4,5-7.3,6.5-11.5c3.3-8.8,4.7-17.8,4-27.2c-0.1-1.7-0.4-3.4-0.6-5.1c-2.1,0-4.1,0-6.1,0
		C115.7,133.1,114.5,148,107.1,162.4z M70.9,61.4c3.5-2.2,6.3-5.1,7.6-9.3c0.7-2.4,0.7-4.9,0.6-7.4c-0.1-3.6,0.6-7,2-10.3
		c0.1-0.2,0.2-0.5,0.3-0.7c-1.4,1-2.7,2.2-4,3.4c-4.2,3.8-7.8,7.9-9.9,13.2c-1.4,3.4-3.1,6.5-5.7,9.1c0,0,0,0.1,0,0.2
		c1.3-0.6,2.4-1.4,3.2-2.5c1.2-1.7,2.3-3.4,3.3-5.2c1-1.8,1.8-3.6,2.8-5.4c2.2-3.9,5.4-7,8.5-10.3c0.1-0.1,0.2-0.1,0.3-0.2
		c0,0.1,0.1,0.1,0,0.2c-1.2,3-1.4,6.2-1.6,9.4c-0.2,3.9-1.2,7.6-3.4,10.9C73.7,58.3,72.1,59.9,70.9,61.4z"/>
	<path d="M26.5,2.5c0,3.6,1.7,6.6,3.9,9.4c1.9,2.4,3.8,4.7,5.6,7.1c3.4,4.6,5.5,9.9,6.6,15.5c0.2,0.8,0.4,1.7,0.5,2.5
		c-1.4-1.6-3.6-2.4-4.5-4.5c-0.1,0-0.2,0.1-0.3,0.1c-0.2,3.2-0.4,6.4-0.6,9.7c-0.1-0.1-0.3-0.3-0.4-0.5c-2.1-3-3.8-6.2-5-9.6
		c-0.6-1.7-1.4-3.3-2.8-4.7c-0.8-0.9-1.4-2.1-1.9-3.2C25,18.4,24,12.3,25.2,6c0.2-1.2,0.7-2.4,1-3.6C26.3,2.4,26.4,2.4,26.5,2.5z"/>
	<path d="M47.9,45.2c-0.5-1.1-1-2.1-1.5-3.1C48.1,42.7,48.3,43.1,47.9,45.2z"/>
	<path class="st0" d="M70.9,61.4c1.3-1.5,2.8-3.1,4-4.9c2.2-3.3,3.2-7,3.4-10.9c0.2-3.2,0.4-6.4,1.6-9.4c0,0,0-0.1,0-0.2
		c-0.1,0.1-0.2,0.1-0.3,0.2c-3,3.3-6.2,6.4-8.5,10.3c-1,1.8-1.8,3.6-2.8,5.4c-1,1.8-2.1,3.5-3.3,5.2c-0.8,1.1-1.9,1.9-3.2,2.5
		c0-0.1,0-0.2,0-0.2c2.6-2.6,4.4-5.8,5.7-9.1c2.2-5.3,5.8-9.5,9.9-13.2c1.3-1.2,2.6-2.3,4-3.4c-0.1,0.2-0.2,0.5-0.3,0.7
		c-1.5,3.3-2.1,6.7-2,10.3c0,2.5,0.1,5-0.6,7.4C77.2,56.3,74.3,59.3,70.9,61.4z"/>
	<path class="st0" d="M29.6,46.1c-0.2-0.5,0.2-0.4,0.4-0.3c2.5,0.4,5,1.2,7.2,2.4c4.1,2.1,7.2,5.2,10.1,8.7c1,1.2,2,2.5,3,3.7
		c0.1,0.1,0.2,0.3,0.1,0.5c-0.4-0.4-0.8-0.7-1.1-1.1c-4.7-4.6-9.8-8.9-15.6-12.1c-1-0.6-2.1-1.1-3.2-1.6
		C30.3,46.1,29.9,46.1,29.6,46.1C29.6,46.1,29.6,46.1,29.6,46.1z"/>
</g>
</svg>
