
<svg xmlns="http://www.w3.org/2000/svg" x="0px" y="0px"
	 viewBox="0 0 253.6 291.3">
<g>
	<path d="M127.3,54.6c0.3,2.3,1,4.7,1,7c0.1,42.9,0.1,85.7,0.1,128.6c0,21,0,41.9,0,62.9c0,0.4,0,0.8,0,1.5c0.5-0.5,0.8-0.8,1-1.1
		c5.2-7.1,12.6-10.7,20.8-13.1c4.5-1.3,9-2.4,13.8-3.7c-0.7-0.3-1.1-0.5-1.6-0.7c-12.6-4.1-20.2-13-24.1-25.3
		c-3.4-11-3.3-22.2-0.2-33.2c2.5-8.7,7.2-16.3,13.8-22.6c1.6-1.5,3.1-3,4.7-4.4c-1.8-0.6-3.6-1.2-5.5-1.9c0.3,4.2-0.1,8.5-5.5,9.8
		c-3.9,0.9-6.9-0.5-8.7-3.7c-1.5-2.8-0.9-6.5,1.3-8.7c2.8-2.7,6.6-3,10.3-0.9c0.6-2.7,1.2-5.4,1.8-8.5c-3.1,3.1-6.3,4.5-10.2,2.5
		c-2.8-1.4-4.4-3.9-4.1-7.1c0.4-4.4,3.1-6.8,7.3-7.4c-2.5-6.6-0.2-10.6,6.6-11.6c-0.6-2.9,0.7-5,3.1-6.5c-5.2-6.6-0.2-13.7,6.7-13
		c-0.6-4.1-2.7-7.1-5.6-9.9c-3.6-3.4-7.3-6.8-10.6-10.5c-4.3-4.7-7.1-10.2-6.2-16.8c0.4-2.7,1.7-5.3,2.6-8c0.1-0.4,0.3-0.8,0.7-1.6
		c-1,0.5-1.5,0.7-2,1.1c-2,1.6-4.1,3.2-6.1,4.8c-1.3,1.1-2.1,0.9-2.7-0.7c-0.7-2.3-0.3-4.6,0.8-6.7c4.4-8.9,11.5-14.9,20.8-18.1
		c2.3-0.8,4.8-1.4,7.4-2.1c-8.2,11.9-13.8,23.9-5.9,38c-6.8-7.4-7.2-21.9,0.4-33.9c-9.1,1.3-22.3,12.7-20.6,20.4
		c5.1-3.3,9.6-7.2,14.3-11c-0.3,0.5-0.5,1.1-0.8,1.6c-3.1,6.6-4,13.4-0.5,20.1c2.7,5.2,7.4,8.3,12.5,10.7
		c9.6,4.5,19.5,8.5,29.1,13.1c17.7,8.5,32.6,20.4,42.9,37.4c9,14.9,12.5,31.1,11,48.3c-1.7,19.8-9.7,36.8-23.7,50.9
		c-7.6,7.6-16.7,12.9-26.8,16.5c-7.5,2.7-15.1,5.4-22.7,7.9c-4.9,1.6-10,2.7-14.9,4.3c-6.6,2.1-12.7,5.1-17.4,10.4
		c-4.1,4.7-6.7,10-4.8,16.4c0.5,1.6,1.5,3.2,2.7,4.5c1.1,1.2,1,1.8,0,2.7c-2.4,2-4.8,4-7.1,6c-2.7-2.4-5.6-4.8-8.8-7.6
		c4.2-2.1,5.2-5.7,5.2-9.6c0-4.9-2.4-8.8-5.6-12.3c-5.2-5.6-12-8.7-19.1-10.9c-4.7-1.5-9.6-2.3-14.2-3.9c-8.8-3.1-17.4-6.6-26.1-9.8
		c-7.9-2.9-14.7-7.6-20.8-13.3c-8.7-7.9-15.2-17.5-19.5-28.3c-8.7-21.9-8.4-43.7,1.5-65.2c4-8.6,9.5-16.2,16.1-23
		c9.2-9.5,20.1-16.6,32.1-22.2c9.3-4.3,18.7-8.3,28-12.7c6.8-3.2,12.1-7.9,13.8-15.7c1.1-4.8,0.2-9.4-1.8-13.8
		c-0.3-0.7-0.7-1.4-1.2-2.4c4.9,3.7,9.4,7.3,14,10.8c0.2-0.2,0.4-0.4,0.6-0.5c0.3-2.5-0.6-4.6-2-6.6c-2.7-4-6.2-7.1-10.4-9.5
		c-2.7-1.6-5.7-2.8-9-4.4c6.6,12.5,9.4,24.3-0.3,36c1-1.8,2.2-3.4,3.1-5.3c2.7-5.7,1.9-11.6,0.4-17.4c-0.7-2.9-1.9-5.7-3.2-8.4
		c-1.3-2.6-3.1-5-4.8-7.7c0.7,0.1,1.3,0.1,1.8,0.2c10.8,2.7,19.5,8.2,25.3,18c1.5,2.6,2.4,5.3,1.5,8.3c-0.5,1.7-1.2,1.9-2.6,0.7
		c-2.5-2.1-5.1-4.1-8.1-6.5c0.5,1.3,0.7,2.3,1.1,3.1c4.2,7.5,3,14.7-1.9,21.2c-2.8,3.7-6.6,6.7-9.9,10.1c-3.6,3.7-7.6,7.3-8.6,13.1
		c3.6-0.3,6.3,0.8,8,4c1.7,3.2,0.8,6.1-1.3,8.7c2.8,3.2,2.8,3.2,3.1,6.6c2.7,0.5,5.4,1.1,6.9,3.8c1.5,2.5,1.4,5.1,0,7.6
		c6.2,2.2,8.7,6.2,6.7,10.8c-1.1,2.7-3.1,4.4-6.1,4.7c-2.8,0.3-5.2-0.8-7.5-2.7c0.6,2.7,1.1,5.2,1.7,7.8c2.8-1.5,5.9-2.1,9.1,0.1
		c1.9,1.3,2.9,3.1,3.3,5.4c0.7,3.8-2.3,7.6-6.3,8.1c-5.8,0.8-8.3-2-9-9.8c-1.7,0.6-3.5,1.1-5,1.6c2.5,2.6,5.2,5.2,7.7,8
		c8.2,9.4,12,20.5,12.8,32.8c0.5,8.6-0.6,17.1-4.4,25c-4.7,9.9-12.1,16.9-22.8,20c-0.3,0.1-0.6,0.2-0.9,0.8c2,0.5,4,1.1,6,1.5
		c6.9,1.6,13.6,3.6,19.7,7.3c3.9,2.4,7.3,5.3,10.1,9.6c0.1-0.9,0.2-1.4,0.2-1.9c0-64.5,0-129,0.1-193.4c0-1.8,0.7-3.7,1.1-5.5
		C126.7,54.5,127,54.5,127.3,54.6z M147.8,135.1c0.1-0.2,0.2-0.3,0.3-0.5c1.8-2.5,1.5-5.4-0.9-7.1c-2.3-1.6-5.7-1-7.4,1.3
		c-1.7,2.3-1.2,5.5,1.1,7.4C142.7,137.6,146.3,137.8,147.8,135.1z M164.1,82.3c1,0.1,1.5,0.1,1.9,0.3c7.4,2.2,14.4,5.2,21,9.4
		c12.4,8,23.1,17.8,30.4,30.8c11.1,19.8,12.8,40.7,6.4,62.3c-3.9,13-10.4,24.4-20.4,33.6c-10.5,9.7-22.7,16.6-36.7,20.3
		c-8.1,2.2-16.4,3.9-23.9,7.8c-5,2.5-9.5,5.7-12.5,10.5c-1.3,2.1-2.3,4.5-3.5,6.8c-0.2-0.2-0.3-0.4-0.3-0.6
		c-2.6-7.8-8.2-12.7-15.3-16.4c-5.6-2.9-11.5-4.8-17.6-6.3c-11.4-2.7-22.2-6.5-32.1-13.1c-11.3-7.6-20.2-17.1-26.4-29.2
		c-4.8-9.3-7.4-19.3-8.6-29.7c-1.9-17.1,1.6-33,10.5-47.6c9.8-16.2,23.8-27.7,41-35.3c3.2-1.4,6.7-2.4,10.1-3.6
		c0.1,0.2,0.2,0.4,0.3,0.5c-1.1,0.9-2.2,1.8-3.2,2.7c-1,1-2.5,2-2.8,3.2c-0.4,1.8-1.5,3-2.6,4.2c-5.6,6.4-8.5,13.8-8.2,22.4
		c0.2,6.6,2.5,12.5,6.9,17.5c-0.7-4-1.1-8-2.5-11.8c-1.6-4.6-1.2-9.1-0.1-13.4c1.3-5,3.7-9.8,7.1-13.8c0.7-0.9,1.4-1.7,2-2.7
		c0.3-0.5,0.6-1.5,0.5-1.6c-1.6-1,0-1.6,0.4-1.9c3.9-2.8,7.7-5.7,11.9-8.1c5.2-3,9.7-6.7,12.6-12.1c0.3-0.6,0.6-1.3,0.9-1.9
		c-3.3,4.4-7.5,7.7-12.3,10c-4.4,2.1-8.9,4-13.3,5.9c-1.7,0.7-3.5,1.3-5.2,2c0.4-0.7,1-1,1.6-1.3c4.4-2,8.7-3.9,13.1-5.9
		c5.9-2.7,10.8-6.7,14.7-11.9c2.9-3.8,4-8.1,3-12.6c-0.8,2.7-1.3,5.7-2.6,8.3c-3.2,6.7-9.2,10.5-15.6,13.5
		c-7.2,3.4-14.5,6.4-21.8,9.7c-12.4,5.6-24.1,12.3-33.9,22C25,119,16.4,135.2,14.4,154.6c-1.3,12.7,0.5,25,5.3,36.9
		c8.3,20.5,22.5,35,43.3,43.2c11,4.3,22.1,8,33.5,11c7.7,2,15.1,5.1,21.1,10.6c3.7,3.4,6.1,7.4,6.9,12.3c0.7,4.4,1.1,8.9-2.1,12.8
		c1.2,0.8,2.4,1.5,3.5,2.3c0.2-2.5,0.3-4.9,0.5-7.2c0.2,0,0.4,0,0.6,0c0.2,2.4,0.3,4.9,0.5,7.3c1.2-0.8,2.4-1.6,3.4-2.3
		c-0.7-1.9-1.8-3.6-2-5.5c-1.1-7.8,1.2-14.6,7.1-19.9c5.3-4.8,11.7-7.8,18.5-9.8c11.8-3.4,23.6-6.7,35-11.3c14-5.6,26-13.6,34.8-26
		c13.3-18.9,17.9-39.8,13.4-62.5c-3.9-19.6-14.7-34.9-30-47.2c-10.9-8.8-23.5-14.6-36.3-20c-7.4-3.1-15.1-5.8-21.5-11
		c-4.7-3.8-8.1-8.3-8.6-14.6c0-0.5-0.2-1-0.4-2c-1.2,4.9-0.6,8.9,2.2,12.4c5.5,7.1,12.7,12.1,21.3,14.9c2.1,0.7,4.1,1.7,6.2,2.5
		c-0.1,0.2-0.2,0.3-0.2,0.5c-10.1-4-21.1-6.5-27.9-16.5c0.1,0.8,0.4,1.4,0.7,2c2.2,4,5.3,7.2,9.1,9.7c3,1.9,6.3,3.6,9.3,5.6
		c2.2,1.5,5.1,2.5,5.1,5.9c0,0.4,0.5,0.8,0.7,1.2c3.7,5.4,8,10.4,9.9,16.8c1.2,3.9,1.4,7.9,1.1,11.8c-0.2,3.4-1.8,6.7-2.7,10
		c-0.4,1.4-0.5,2.9-0.8,4.4c0.2,0,0.4,0,0.6,0.1c7.1-9.4,8.5-19.6,4.1-30.6c-2.6-6.6-7.4-11.7-12.4-16.6
		C166.2,84.7,165.4,83.7,164.1,82.3z M48.4,123.7c-4.3,6.8-8,13.9-7.9,22.5c-0.3-2.9-0.5-5.8-0.3-8.7c0.7-7.3,3.5-13.7,8.1-19.3
		c1-1.2,1.8-2.4,2.7-3.7c-0.2-0.1-0.4-0.3-0.6-0.4c-1.4,1.7-3,3.2-4.3,5c-6.1,8.1-10.1,17.2-12.6,26.9c-3.7,14.5-4,28.9,0.8,43.3
		c4.4,12.9,12.1,23.5,22.7,32c4.9,3.9,10.1,7.4,16.3,8.8c6.7,1.5,12.8,0.6,17.8-4.6c9.6-9.8,9.3-25.6-1-34.6
		c-4.4-3.8-9.4-6.9-14.2-10.3c-11.4-8.3-20.5-18.4-24.7-32.2C48.9,140.4,47.9,132.2,48.4,123.7z M204.6,123.7c0,0.3,0,0.6,0,0.9
		c1.5,20-5.1,36.9-20.1,50.1c-5.4,4.8-11.7,8.7-17.6,13c-8.3,6.1-13.3,13.8-11.7,24.5c0.3,2.2,1.2,4.4,2.2,6.5
		c2.7,5.8,6.6,10.4,13.2,11.7c6,1.1,11.7-0.5,16.8-3.5c20.4-12,32.6-29.7,34.5-53.5c1.5-18.7-2.8-36.1-13.2-51.9
		c-1.9-2.9-4.4-5.5-6.6-8.2c-0.2,0.2-0.4,0.3-0.6,0.5c1.6,2.2,3.2,4.3,4.7,6.5c5.3,7.5,7.6,15.7,6.2,25
		C212.3,137.1,209,130.2,204.6,123.7z M172.7,88c1.3,1.4,2.6,2.9,3.9,4.3c10.6,11.5,11.6,27.6,2.7,40.4c-4.7,6.8-11,12-17.3,17.1
		c-11.1,9-19,20-21.5,34.4c-2.2,12.8-0.7,24.9,6.6,35.9c2.5,3.7,5.3,7.1,9.4,9.3c-0.4-0.7-1.1-1.2-1.5-1.9c-1.6-2.4-3.6-4.8-4.7-7.4
		c-4.8-11.8-0.1-24.5,11.1-32.1c3.7-2.5,7.7-4.8,11.6-7.1c10.3-6.2,18.8-14.1,24.1-25c7.8-16,8.5-32,0.1-48c-0.9-1.7-2-3.2-3-4.8
		c0.1-0.1,0.2-0.2,0.4-0.3c2.7,2.2,5.3,4.4,8,6.7c0.1-0.1,0.2-0.3,0.3-0.4C193.6,100.7,184.3,92.6,172.7,88z M81,87.7
		c-6.5,1.8-24.6,14.6-27.8,19.6c2.3-1.7,4.4-3.3,6.4-4.8c-1.8,3.1-3.9,6-5.2,9.2c-7.5,19.6-4.3,37.6,8.4,54.1
		c6.4,8.3,15.1,13.7,23.9,19c4.1,2.5,8.1,5.3,11.3,8.7c8.1,8.4,9.2,20.4,3.5,30.2c-1.1,1.9-2.7,3.5-4,5.3c0,0,0.1,0.1,0.2,0.1
		c0.3-0.2,0.7-0.4,1-0.6c4.8-3.6,8.3-8.2,10.8-13.6c5.2-11.1,5.4-22.5,2.5-34.2c-3.1-12.5-10.4-22-20-30.2
		c-5.9-5.1-12.2-9.8-16.9-16.1c-7.6-10.1-9.3-20.9-4.3-32.6C73.1,96.4,76.6,92.1,81,87.7z M150,115c-2.8,0-5,2.2-5,5
		c0,3,2.3,5.6,4.9,5.6c3.1,0,5.8-2.4,5.8-5C155.8,117.7,153,115,150,115z M103,115.1c-2.8-0.1-5.2,2.3-5.3,5.2
		c-0.1,3,2.2,5.3,5.3,5.3c2.8,0.1,5.1-2.3,5.3-5.3C108.4,117.4,106.2,115.2,103,115.1z M99.6,100.8c0-2.9-2.2-5.1-5.1-5.2
		c-3.1-0.1-5.5,2.1-5.5,4.9c0,2.8,2.6,5.4,5.5,5.4C97.2,106.1,99.6,103.6,99.6,100.8z M158.5,95.7c-2.8,0-5,2.2-5,4.9
		c0,2.9,2.4,5.3,5.4,5.3c2.9,0,5.1-2.4,5.1-5.4C164,97.7,161.8,95.7,158.5,95.7z M109.3,137.2c3.1,0,5.4-2.2,5.3-5.4
		c0-3-2.4-5.2-5.5-5.2c-3,0-4.9,2-4.9,5C104.2,134.9,106.3,137.2,109.3,137.2z M156.6,147.4c3.1-0.1,5.4-2.5,5.3-5.8
		c0-2.5-2.5-4.6-5.2-4.6c-3,0.1-5.4,2.3-5.4,5.1C151.4,145.1,153.7,147.4,156.6,147.4z M80.6,130.4c-0.1,3.1,2.2,5.5,5.1,5.6
		c2.6,0.1,5.2-2.4,5.3-5c0.1-3.2-1.9-5.3-5.2-5.4C82.8,125.5,80.7,127.4,80.6,130.4z M82.1,121.4c2.8,0,5.5-2.8,5.5-5.6
		c0-2.5-2.3-4.7-5.1-4.7c-3,0-5.3,2.2-5.3,5.2C77.2,118.9,79.5,121.4,82.1,121.4z M165.9,115.9c0,3,2.4,5.5,5.3,5.5
		c2.7,0,5-2.4,5-5.3c0-2.8-2.5-5.1-5.4-5.1C168,111,165.9,113.1,165.9,115.9z M89.5,115c0.2,0,0.4,0,0.7,0c1.3,0.2,2.6,0.4,3.8,0.6
		c2.3,0.4,4.4-0.3,5.7-2.3c0.9-1.3,0.9-2.8,0.1-4.1c-0.4-0.6-1.4-1.4-1.9-1.3c-2.8,0.6-5.5,0.5-8.3-0.9
		C89.5,109.9,89.5,112.5,89.5,115z M104.3,150.4c0,3,2.2,5.5,5,5.6c2.7,0,5.1-2.4,5.2-5.2c0.1-2.9-2.2-5.3-5-5.3
		C106.4,145.4,104.3,147.4,104.3,150.4z M149,150.6c0-3-2.1-5.2-4.8-5.2c-2.9,0.1-5.5,2.7-5.5,5.4c0.1,2.7,2.4,5.1,5,5.1
		C146.4,156,149,153.4,149,150.6z M162.3,130.7c0,2.8,2.2,5.1,4.9,5.2c2.8,0.1,5.4-2.7,5.4-5.7c0-2.7-2.1-4.6-5.1-4.6
		C164.3,125.7,162.3,127.6,162.3,130.7z M96.6,137.1c-3.1,0-5.2,1.8-5.1,4.5c0.1,3.1,2.4,5.6,5.4,5.6c3.1,0,5.2-2.1,5.2-5.2
		C102.1,139.1,99.8,137.1,96.6,137.1z M163.5,115.3c0.9-2.5,1.8-5.3,0.2-8.4c-2.1,1.6-4.4,2-6.7,1.3c-1.4-0.4-2.5-0.3-3.2,0.9
		c-0.7,1.4-1,2.9,0,4.3c1.4,1.7,3.2,2.6,5.5,2.2C160.6,115.4,161.9,115.4,163.5,115.3z M90,231.7c4.8-3.3,8.3-7.6,10.3-13.1
		c2.2-5.7,1.1-11.1-1.3-16.3c0.1,1.6,0.3,3.1,0.4,4.7c0.4,7.4-0.9,14.2-6,19.9c-2.9,3.2-6.1,6-10.7,6.3c-1.4,0.1-2.9,0-4.3,0
		c0,0.2,0,0.4,0.1,0.6c4.8,1.6,9.1-0.3,13.3-2.4C91.2,231.5,90.6,231.6,90,231.7z M101.4,136.1c0.3-2.8,0.6-5.5,0.9-8.2
		c-1-0.3-2.1-0.4-3.2-0.9c-1.7-0.8-3.1-0.1-3.8,1.2c-1.3,2.4-2.1,4.9-3.3,7.7C95.4,134.7,95.4,134.7,101.4,136.1z M96.6,126.1
		c-0.4-1.7-1.1-3.3-1.2-4.9c-0.1-1.6-0.4-3-2.2-3.4c-1.9-0.5-3.1,0.2-4.2,1.7c-1,1.4-2.1,2.7-3.2,4c3.2,0.6,6,2.2,7.5,5.2
		C94.5,127.7,95.6,126.9,96.6,126.1z M150.9,127.9c0.3,2.3,0.8,4.4,0.8,6.5c0,1.8,0.4,2,1.9,1.2c0.8-0.4,1.7-0.6,2.6-0.8
		c3.2-0.7,3.7-1.4,3.5-4.6c-0.1-1.8-2.7-3.9-4.5-3.5C153.9,127,152.5,127.5,150.9,127.9z M166.2,123.2c-0.8-1.4-1.7-3-2.7-4.6
		c-0.8-1.3-2.1-1.3-3.3-0.7c-0.7,0.3-1.7,0.9-1.9,1.6c-0.6,2.1-1,4.2-1.5,6.7c0.9,0.5,2.1,1.3,3,1.8
		C162,126.3,163.9,124.8,166.2,123.2z M174.2,233.9c0-0.2,0-0.4,0.1-0.6c-0.8,0-1.5,0.1-2.3,0c-3-0.3-5.8-0.7-8.3-2.7
		c-8.3-6.8-11.3-15.6-9.9-26.1c0.1-0.6,0.1-1.2,0.2-1.8c-2,3.9-2.7,8-1.9,12.2c1.4,7.3,5.5,12.7,11.6,16.8c-0.7-0.1-1.4-0.2-2.2-0.3
		C165.6,233.5,169.7,235,174.2,233.9z M87.7,111.2c0.9-5.2,0.9-5.2-0.1-6.2c-1.7,0.7-3.3,1.8-4.7,1.7c-1.5-0.2-2.8-1.6-4.3-2.5
		c-0.6,2.1-1.3,4.5-2.1,7.2C80.3,108.3,83.9,108,87.7,111.2z M165.8,110.8c3.9-2.9,7.4-1.7,10.8,0.2c-0.9-2.2-1.7-4.3-2.6-6.6
		c-3.2,3.3-5.1,3.2-8.1-0.2C164.1,106.4,166,108.5,165.8,110.8z M86.7,99c0.4-2.1,0.6-4.1,1.2-5.8c0.6-1.8,1.4-3.7,2.5-5.3
		c1-1.4,2.6-2.5,4-3.7c-4.3,2-7.3,5.2-9.2,9.5c-0.7,1.7-1.1,3.7-3.6,3.8c-0.3,0-0.6,0.5-0.8,0.7C83,97.2,84.9,97.4,86.7,99z
		 M82.9,138.7c2.1,2,4.3,4,6.4,6c0.2-2.5,0.5-4.8,0.6-6.5C87.7,138.3,85.4,138.5,82.9,138.7z M166.3,99.2c1.1-0.6,2.1-1.1,3.1-1.7
		c-2.2-4.3-4-8.9-8.1-11.9c2.3,1.4,3,3.9,3.6,6.3C165.7,94.3,165.9,96.8,166.3,99.2z M164.2,144.5c2.3-2.1,4.5-4.1,6.8-6.2
		c-2.8,0.8-5.3,0.8-7.5-0.5C163.7,139.9,164,142,164.2,144.5z M172,103.6c0.6-1.9-0.1-3.5-1.7-4c-1.5-0.5-2.6,0.2-3.2,1.8
		c-0.3,1,0.7,3.1,1.8,3.3c1.8,0.3,2.2-1.2,2.6-2.9C171.8,102.6,171.9,103,172,103.6z M81.4,101.4c0,1.6,1.4,3.7,2.4,3.2
		c1-0.5,2.3-1.7,2.2-2.6c0-0.9-1.3-2.3-2.3-2.6C82.4,99.1,81.5,100.2,81.4,101.4z M174.3,127.8c0.4-1.7,0.7-3.2,1.1-4.9
		c-1.8,0.4-3.3,0.8-4.5,1.1C171.9,125.1,173,126.3,174.3,127.8z M164.1,95.9c0.1-3.5-1.7-7-4-7.8C162.4,90.1,161,93.9,164.1,95.9z
		 M78.9,127.4c1.3-1.3,2.4-2.4,3.4-3.4c-1.5-0.4-2.9-0.8-4.6-1.3C78.1,124.4,78.4,125.7,78.9,127.4z M92.9,88.5
		c-2.8,2.7-4,5.5-3.5,7.5C92.2,94.3,91.4,90.8,92.9,88.5z"/>
	<path d="M164.6,22.3c-11.3-0.3-20.5,3.3-28.5,11.4c1.1-10.8-3.6-19.1-9.4-27.1c-5.5,8.2-10.4,14.8-9.7,27.1
		c-7.8-8.1-17.2-11.7-28.4-11.4c1.3,1.5,2.5,2.7,3.6,4.1c6.1,7.9,8.9,16.9,7.9,26.9c-0.5,5.4-3.2,9.9-7.6,12.8
		c-4.4,2.9-9.2,5.3-14,7.5c-10.5,4.7-21,9.4-30.4,16c-21,14.8-35.1,34.3-39.2,60c-4.2,26.5,3.2,49.8,21.5,69.5
		c13.5,14.5,30.6,23.1,49.4,28.4c6.2,1.8,12.4,3.3,18.6,5.2c6.3,1.9,12.2,4.7,16.5,9.9c1.7,2.1,2.9,4.7,3.5,7.3
		c0.9,3.9-2.3,7.2-5.9,6.5c-2.6-0.5-4.2-2.7-3.8-5.4c0.3-2.5,1.6-3.4,5.1-3.4c-1.1-1.4-1.8-2.7-2.8-3.7c-4.4-4.3-9.9-6.7-15.6-8.4
		c-6.9-2.1-14-3.6-20.8-5.8c-16.5-5.3-31.4-13.3-43.9-25.4c-13.5-13-22.4-28.6-25.2-47.3C2.3,158,5,139.7,14.3,122.4
		C24.8,102.9,40.6,89,60.1,79.2c8.4-4.3,17.2-7.9,25.6-12.1C92.1,64,96.5,59,97.1,51.7c0.5-5.5-0.8-10.8-2.9-15.9
		c-2.2-5.3-5.1-10.2-9.5-14.1c-0.3-0.3-0.6-0.6-1.1-1.2c11.4-2.4,21.4,0,30.7,7.3c0.7-10.3,7.1-17.6,12.3-25.6
		c5.5,5.8,10.6,16.1,12.5,25.3c9-7,19.1-9.3,30.5-7c-1.3,1.3-2.4,2.4-3.4,3.6c-5.6,6.7-9.1,14.4-10.1,23.1c-1,8.8,3.3,16,12,20.2
		c7.2,3.4,14.5,6.5,21.6,9.9c16.5,8,31.1,18.5,42.1,33.5c12.3,16.8,18.3,35.6,17.4,56.5c-1.1,25-12,45.2-30.9,61.3
		c-10.2,8.6-21.7,15.1-34.3,19.3c-8.7,2.9-17.6,5.2-26.4,7.8c-5.2,1.5-10.2,3.7-14.2,7.3c-1.5,1.4-2.7,3.1-4.3,4.9
		c3.8-0.2,5.1,0.5,5.5,2.9c0.5,2.6-0.9,4.9-3.2,5.6c-2.5,0.7-5.1-0.4-5.9-2.9c-1-2.7-0.7-5.3,0.7-7.8c2.8-4.9,6.9-8.4,12-10.4
		c6.2-2.4,12.6-4.4,19.1-6.1c13.2-3.6,26.1-8.1,37.8-15.4c22.3-14.1,36.2-33.9,39.9-60.4c2.4-17.3-0.8-33.7-8.8-49.2
		c-7.3-14.2-17.9-25.3-30.8-34.5c-10-7.2-21.3-11.9-32.4-16.9c-3.6-1.6-7.2-3.5-10.6-5.6c-7.6-4.8-10.4-12.1-9.3-20.8
		C154.2,37.3,157.6,29.2,164.6,22.3z M137.8,271.9c0.7,1.8,1.6,2.7,3.2,1.8c1.1-0.6,2-1.8,0.9-2.9C140,269,139.4,271.9,137.8,271.9z
		 M112.9,274.3c0.3,0,0.6-0.1,0.8-0.1c0.4-0.7,1.3-1.8,1.1-2c-0.8-0.8-1.8-1.4-2.7-2.1c-0.3,0.5-1,1.2-0.9,1.5
		C111.6,272.6,112.3,273.4,112.9,274.3z"/>
	<path d="M122,38.4c-4.9-10.2-0.6-18.6,4.8-27c6.9,9.7,9.1,19.4,4.5,27c2-8.5,0.3-16-4.6-23C122,22.6,120.2,30.1,122,38.4z"/>
	<path d="M126.7,46.4c-1.1-2.3-2.4-4-2.8-6c-0.4-2.1-0.4-4.4,0-6.5c0.6-3.1,1.8-6.1,2.8-9.4c1.1,4.1,2.4,8.1,3.2,12.1
		C130.7,40.3,128.3,43.1,126.7,46.4z"/>
	<path d="M111.2,75.8c-2.4,2.3-4.7,4.7-7.1,7c-1.7,1.6-3,3.4-2.9,5.3c1,1.1,1.8,1.7,2.2,2.5c0.1,0.2-0.6,1.4-0.8,1.3
		c-0.8-0.2-1.5-0.6-2.7-1.2c0,0-0.5,0.2-1.1,0.4c-0.1-0.4-0.3-0.6-0.3-0.8c1.1-3.6,2.3-7.2,5.5-9.6c2.3-1.7,4.5-3.5,6.8-5.3
		C111,75.6,111.1,75.7,111.2,75.8z"/>
	<path d="M141.5,74.9c2.9,2.3,5.7,4.5,8.6,6.8c2.4,1.8,3.5,4.3,3.8,7.2c0.1,1-2.3,3.4-3.3,3.3c-0.3-0.1-0.9-0.5-0.8-0.7
		c0.1-0.5,0.4-1.3,0.7-1.4c2-0.4,1.6-1.7,1.1-2.8c-0.9-1.7-1.9-3.4-3.1-4.9c-2.3-2.6-4.8-5-7.1-7.5C141.4,75,141.5,74.9,141.5,74.9z
		"/>
	<path d="M109.7,161.5c1.8,0.5,3.5,1.8,5.1,3.3c0.2,0.2,0.3,0.7,0.2,0.9c-1,1.8,0.5,3.2,0.8,4.8c0.9,4,1.6,8,1.9,12.2
		c-1-3.7-1.6-7.4-3-11C113.4,168.2,111.4,164.9,109.7,161.5z"/>
	<path d="M138,217.2c4.1,7.1,8.5,13.4,15.9,17.5C146.8,234.1,139.9,225.1,138,217.2z"/>
	<path d="M99.3,234.6c7.7-3.7,11.8-10.3,16-17C114.3,223.1,106.3,234.7,99.3,234.6z"/>
	<path d="M135.4,181.9c0.3-4.8,1.2-9.4,3-14c0.9-2.4,2.1-4.2,3.8-5.9c0.4-0.4,0.9-0.5,1.5-0.5C139,167.7,136.8,174.6,135.4,181.9z"
		/>
	<path d="M135.7,244.2c4.6-5.7,11.2-6.8,18-7.3C147.6,239,141.2,240.6,135.7,244.2z"/>
	<path d="M98.6,236.8c7.2,0.9,14.5,1.8,19.4,8.2C112.3,240.5,105.3,239.1,98.6,236.8z"/>
	<path d="M109.1,102.8c-0.7,0.6-1.4,1.3-2.1,1.9c-0.8-0.9-1.9-1.8-2.2-2.8c-0.2-0.5,0.9-1.8,1.7-2.2
		C107.5,99.3,108.8,101.1,109.1,102.8z"/>
	<path d="M149,101.9c-1,1.1-1.8,1.9-2.5,2.7c-0.6-0.7-1.7-1.5-1.6-2.1c0.3-1,1.2-1.9,1.9-2.8C147.4,100.4,148,101,149,101.9z"/>
	<path d="M114.6,109.2c-0.4,1.7-0.9,2.9-2.3,2.7c-0.6-0.1-1.5-1.1-1.5-1.7c-0.1-1.1,0.1-2.6,1.7-2.6
		C113.2,107.6,113.9,108.6,114.6,109.2z"/>
	<path d="M143,109.4c-0.9,1-1.6,1.7-2.2,2.4c-0.6-0.8-1.5-1.5-1.5-2.3c0-0.6,1-1.5,1.7-1.8C141.3,107.5,142.1,108.6,143,109.4z"/>
	<path d="M140.6,117.5c-0.8,0.8-1.4,1.4-2,1.9c-0.5-0.6-1.4-1.3-1.4-1.9c0-0.7,0.9-1.4,1.4-2.1C139.2,116,139.8,116.6,140.6,117.5z"
		/>
	<path d="M116.7,117.6c-0.8,0.8-1.4,1.3-2,1.9c-0.5-0.7-1.3-1.5-1.4-2.2c0-0.6,1-1.2,1.5-1.8C115.4,116,116,116.6,116.7,117.6z"/>
	<path d="M117.9,139.4c-0.3,1.8,1.2,3.4-0.7,4.6C115.2,142.7,115.2,142.7,117.9,139.4z"/>
	<path d="M135.1,140.3c1.6,0.4,2.9,0.9,2.2,2.4c-0.2,0.4-1,0.6-1.5,0.8C135.5,142.5,135.3,141.4,135.1,140.3z"/>
	<path d="M135.6,158c0.5,0.5,1,0.8,1.2,1.3c0.2,0.6,0.1,1.3,0,1.9c0,0.2-0.9,0.4-0.9,0.3c-0.3-0.5-0.6-1.1-0.7-1.7
		C135.2,159.3,135.5,158.7,135.6,158z"/>
	<path d="M118.1,158.9c-0.4,1.3-0.6,2.2-0.8,3.1c-0.4-0.3-1.1-0.5-1.2-0.9C115.5,159.8,116.5,159.4,118.1,158.9z"/>
	<path d="M135.1,126.5c-0.2-1.7,0-3.2,1.5-4c0.2,0.1,0.4,0.2,0.6,0.3C136.5,124.1,135.8,125.3,135.1,126.5z"/>
	<path d="M116.4,122.4c1.8,0.6,1.5,2.5,1.7,4.1c-0.7-1.2-1.5-2.5-2.2-3.7C116,122.7,116.2,122.5,116.4,122.4z"/>
	<path d="M106.4,109.7c-0.6-0.9-1-1.4-1.1-1.9c-0.1-0.3,0.5-0.7,0.8-1c0.4,0.4,0.9,0.8,1.1,1.3C107.2,108.4,106.8,108.9,106.4,109.7
		z"/>
	<path d="M147.8,135.1c-3.3,1.5-3.4,1.5-5.3,0.6c2.5,0.3,4.4-0.3,5.6-2.7c0,0.6,0,1.1,0,1.7C148,134.8,147.9,135,147.8,135.1z"/>
	<path d="M233.8,161.3c-0.5,37.1-23,64.8-48.2,71.8C215.4,218.4,232.1,194.9,233.8,161.3z"/>
	<path d="M19.8,158.9c0.1,30.3,15.4,58.1,46.6,74c-0.4,0-0.6,0.1-0.8,0c-0.3-0.1-0.5-0.2-0.7-0.3c-12.1-5.1-22.5-12.3-30.1-23.3
		c-7.1-10.5-11.7-22-14.1-34.4C19.7,169.6,19.3,164.2,19.8,158.9z"/>
	<path d="M64,222.1c10.7,5.9,20.5,6.2,26.7-2.7c-0.3,2.4-1.7,3.9-3.2,5.1c-3.5,2.8-7.4,4-12,3.1C71.2,226.6,67.4,224.8,64,222.1z"/>
	<path d="M35.7,162.7c-1.2-8.7-0.8-17.2,2.3-25.3c0.2,0,0.5,0.1,0.7,0.1c-0.4,2.2-0.8,4.4-1,6.6c-0.7,5.6-1.4,11.3-2,16.9
		C35.7,161.5,35.7,162.1,35.7,162.7z"/>
	<path d="M81.5,190.2c8.7,3.9,16.2,16.6,13.6,24.7c-0.2-5-1.1-9.7-3.7-14.1C88.9,196.6,85.5,193.2,81.5,190.2z"/>
	<path d="M158.2,217.1c-1.2-2-1.1-4-0.9-6c1.3-10.2,7.1-17.2,15.7-22.2c-2.6,2.4-5.4,4.7-7.9,7.2c-2.6,2.7-4.8,5.9-5.5,9.6
		C159,209.5,158.7,213.1,158.2,217.1z"/>
	<path d="M188.9,222.4c-4.2,2.9-8.7,5.3-14,5.4c-5.5,0.1-9.4-2.6-12-7.5c0.6,0.5,1.3,0.9,1.8,1.5c3.7,4.4,8.5,5.3,13.7,4.1
		C182,225.1,185.4,223.6,188.9,222.4z"/>
	<path d="M213.4,135.9c4.4,8.3,5.1,17.1,4,26.1C217.3,153.1,215.6,144.4,213.4,135.9z"/>
	<path d="M207.6,137.6c-0.2-2.6-0.4-5.2-0.6-7.8c0.2,0,0.3,0,0.5-0.1c0.9,2.5,1.2,5.1,0.7,7.8C208,137.6,207.8,137.6,207.6,137.6z"
		/>
	<path d="M180.5,93.9c6.7,3.5,11.3,9,14.5,15.7c8.4,17.3,5.2,41-8.9,56.2c-5.6,6-12.2,10.3-19.2,14.3c-5.1,2.9-10.2,5.7-14.3,10.1
		c-6.6,7.1-8.9,15.3-6.6,24.7c0.1,0.3,0.1,0.6,0.1,0.9c-0.2,0-0.3,0.1-0.5,0.1c-0.7-1.9-1.5-3.7-2-5.6c-2-8.3-2.6-16.7-1.3-25.2
		c1.9-11.9,7.6-21.6,16.6-29.4c4.1-3.5,8.6-6.5,12.6-10.1c8.4-7.4,14.4-16.2,15.6-27.6C188.2,109.2,186,101.1,180.5,93.9z
		 M143.5,202c1.5-6.7,5.2-12,10.4-16.1c3.4-2.7,7.2-5.1,11-7.3c7.2-4.2,14.3-8.4,19.8-14.8c12-13.9,15.2-29.8,10.4-47.5
		c-1.2-4.6-3.7-8.5-7-12.4c0.1,0.6,0.1,0.8,0.2,0.9c3.6,12.8,0.6,24.1-8.4,33.7c-5.5,5.9-11.5,11.3-17.5,16.7
		c-9.4,8.5-16,18.5-18.7,31C142.4,191.4,142.3,196.7,143.5,202z"/>
	<path d="M73,93.9c-3.1,4.3-5.6,8.9-6.5,14.1c-1.7,10.3,0.3,19.7,6.5,28.2c3.9,5.3,8.5,9.9,13.9,13.8c8.3,5.9,15.4,13.1,20,22.4
		c3.5,7.1,4.5,14.8,4.7,22.6c0.1,6.2-0.7,12.3-2.7,18.2c-0.4,1-0.9,2-1.6,2.9c0.3-2.2,0.9-4.5,0.9-6.7c0.3-8.6-3-15.8-9.6-21.1
		c-4.6-3.7-9.8-6.7-15-9.8c-7.5-4.5-14.4-9.6-19.6-16.8c-8.3-11.2-11.3-23.8-9.9-37.5c1-9.1,4.3-17.2,10.5-23.9
		c2.3-2.5,5.3-4.5,7.9-6.8C72.7,93.6,72.8,93.8,73,93.9z M110,202.2c0.2,0,0.4,0,0.6,0c0-3.8,0.4-7.6-0.1-11.4
		c-1.5-13-7.5-23.9-16.8-33c-6.4-6.3-13.3-12.1-19.6-18.5c-7.8-7.9-11.6-17.4-10.3-28.6c0.2-2,0.7-4,1.1-6.4
		c-3.5,4.1-5.8,8.5-7.1,13.3c-5,19.4,0.8,40.5,19.5,53.8c4.7,3.3,9.7,6.2,14.7,9.2c6.5,4,12.2,8.6,15.7,15.6
		C108.6,198.1,109.2,200.2,110,202.2z"/>
	<path d="M113.3,133c0.2,1.6-0.7,2.2-1.8,2.7c-1.4,0.7-2.9,0.8-4.3-0.4C110.8,136,111.9,135.5,113.3,133z"/>
	<path d="M160.5,142.1c-0.2,3.6-2.1,4.7-5.7,3.8C157.6,146,159.5,144.7,160.5,142.1z"/>
	<path d="M82,131.5c2.7,3.8,5.4,3.9,7.6,0.6c-0.4,1.9-1.9,3-3.9,3C83.8,135.1,82.5,133.9,82,131.5z"/>
	<path d="M78.9,117.3c2,2.6,3.9,2.9,6.6,1c-0.6,1.6-1.5,2.1-3.6,1.9C80.1,120.1,79.1,119.1,78.9,117.3z"/>
	<path d="M174.9,116.7c0.1,1.4-0.5,2.6-2,3.2c-1.8,0.7-3.5,0.5-4.6-0.8c1.2,0.1,2.6,0.6,3.8,0.2C173.2,118.9,174,117.6,174.9,116.7z
		"/>
	<path d="M105.8,151c2.4,4.1,5.2,4.4,7.5,1.1c-0.2,1.8-1.5,2.8-3.6,2.8C107.6,154.9,106.3,153.7,105.8,151z"/>
	<path d="M140.3,152.4c2.5,3.2,5.5,2.7,7.3-1.2c0.3,2.2-0.6,3.4-3.1,3.8C142.3,155.4,140.7,154.4,140.3,152.4z"/>
	<path d="M171.7,129.9c0,2.5-0.7,4-2.5,4.8c-1.6,0.7-3,0.6-4.4-0.7C168.6,134.5,169.3,134.9,171.7,129.9z"/>
	<path d="M93.1,142.2c2.4,4.7,4.9,4.7,8.3,0.2c-0.2,2.7-1.8,4.1-4.5,4C94.6,146.2,93.1,144.6,93.1,142.2z"/>
	<path d="M160.7,110.2c1,2,0.6,3.6-1.3,4.4C159.9,113.2,160.3,111.7,160.7,110.2z"/>
	<path d="M157.3,174.5c0,2.1-1.6,3.6-3.9,3.6c-1.9,0-3.3-1.3-3.2-3c0-2,1.8-3.7,3.9-3.7C156,171.3,157.3,172.6,157.3,174.5z"/>
	<path d="M164.9,166.5c-1.4,0.9-2.1,1.7-3,2c-0.4,0.1-1.4-1-1.5-1.6c-0.2-1.3,0.9-2.1,2.1-2C163.1,164.9,163.7,165.7,164.9,166.5z"
		/>
	<path d="M99.9,177.9c-2.3,0-3.9-1.5-3.9-3.5c0-1.8,1.2-3,3.1-3.1c1.9,0,3.9,1.9,4,3.9C103.1,176.8,101.8,178,99.9,177.9z"/>
	<path d="M88.5,166.6c1-0.8,1.9-1.8,2.1-1.7c0.9,0.5,1.5,1.3,2.2,2c-0.6,0.6-1.3,1.7-1.7,1.6C90.3,168.4,89.6,167.5,88.5,166.6z"/>
</g>
</svg>
