
<svg version="1.1" id="Ebene_1" xmlns="http://www.w3.org/2000/svg" xmlns:xlink="http://www.w3.org/1999/xlink" x="0px" y="0px"
	 viewBox="0 0 174.4 132" style="enable-background:new 0 0 174.4 132;" xml:space="preserve">
<path d="M30.4,123c18-3,34.1-18.2,50.1-38.6c-4.4-2-8.3-4-12.3-5.3c-1-0.3-2.2,1.6-3.2,2.8c-9.2,11.9-18.8,21.7-29.3,25.6
	c-7.5,2.7-15.1,2.8-22.3-4.5c-2.4-2.5-4.8-6.1-4.4-12C9.4,86,10.9,79.9,12.7,77c5.4-8.4,11.7-11.7,18.2-11.5
	c10.6,0.3,21.3,1.5,31.9,3.1c3.7,0.5,6.7-2,9.7-6.1C81,50.5,89.5,38.5,98.1,26.7c9.8-13.5,20.5-20.6,31.9-21.4
	c6.5-0.5,12.9,1.5,18,11.5c1.9,3.8,2.8,10.4,4.1,15.7c0.6,2.4,1,5.8,1.9,7.1c8.3,11.8,8.9,31.6,1,45.2c-9.5,16.5-20.7,19.3-32,16.7
	c-10.3-2.3-20.6-6.9-30.7-11.7c-5.2-2.5-9.5,0.2-13.8,5.7c-11.5,14.5-23.4,27.1-36.6,31.5c-3.7,1.2-7.6,0.2-11.3,0.2
	C30.5,125.7,30.4,124.3,30.4,123z M91.8,81.6c13.6,6.7,27.1,14.4,41.1,12.2c7.5-1.2,14.8-4.1,20.6-16.5c2.6-5.7,4.3-12.6,3.1-20.7
	c-1.2-8.1-4.5-11.2-8-12.9c-6.8-3.3-13.6-1.9-20.4,1.4C115,51.6,103.7,68.1,91.8,81.6z M149.9,35c-2.7-11.7-6.4-18.2-11.7-20.2
	c-11-4.2-21.6-0.7-31.3,11C95.6,39.3,84.6,54.6,73.5,69.2c-0.4,0.6-0.7,1.9-1.4,3.9c3.5,1.3,6.6,1.9,9.5,3.8
	c3.5,2.2,6.4,0.4,9.4-3.5c5.3-6.6,10.6-12.6,16-18.9c12.8-14.9,26.2-22.4,40.7-18.7C148.2,35.8,148.8,35.4,149.9,35z M61.8,77.6
	c-11.8-5.1-23.3-8-34.9-3c-4,1.7-8,4.3-11.9,7.5c-1.2,1-2.5,5.3-2.6,8.3c-0.1,2.2,1.5,5.9,2.7,6.9c2.7,2.2,5.7,3.9,8.6,4.4
	C34.9,103.5,45.1,95.6,55,85C57.3,82.6,59.5,80.1,61.8,77.6z"/>
</svg>
